<svg width="20" height="14" viewBox="0 0 20 14" fill="none" xmlns="http://www.w3.org/2000/svg">
<path d="M0 13.5V11.5H10V13.5H0ZM0 8.5V6.5H5V8.5H0ZM0 3.5V1.5H5V3.5H0ZM18.6 13.5L14.75 9.65C14.35 9.93333 13.9125 10.1458 13.4375 10.2875C12.9625 10.4292 12.4833 10.5 12 10.5C10.6167 10.5 9.4375 10.0125 8.4625 9.0375C7.4875 8.0625 7 6.88333 7 5.5C7 4.11667 7.4875 2.9375 8.4625 1.9625C9.4375 0.9875 10.6167 0.5 12 0.5C13.3833 0.5 14.5625 0.9875 15.5375 1.9625C16.5125 2.9375 17 4.11667 17 5.5C17 5.98333 16.9292 6.4625 16.7875 6.9375C16.6458 7.4125 16.4333 7.85 16.15 8.25L20 12.1L18.6 13.5ZM12 8.5C12.8333 8.5 13.5417 8.20833 14.125 7.625C14.7083 7.04167 15 6.33333 15 5.5C15 4.66667 14.7083 3.95833 14.125 3.375C13.5417 2.79167 12.8333 2.5 12 2.5C11.1667 2.5 10.4583 2.79167 9.875 3.375C9.29167 3.95833 9 4.66667 9 5.5C9 6.33333 9.29167 7.04167 9.875 7.625C10.4583 8.20833 11.1667 8.5 12 8.5Z" fill="white"/>
</svg>
