<svg width="16" height="16" viewBox="0 0 16 16" fill="none" xmlns="http://www.w3.org/2000/svg">
<mask id="mask0_30_64" style="mask-type:alpha" maskUnits="userSpaceOnUse" x="0" y="0" width="16" height="16">
<rect width="16" height="16" fill="#D9D9D9"/>
</mask>
<g mask="url(#mask0_30_64)">
<path d="M7.5 8C7.94688 8 8.32943 7.84333 8.64766 7.53C8.96589 7.21667 9.125 6.84 9.125 6.4C9.125 5.96 8.96589 5.58333 8.64766 5.27C8.32943 4.95667 7.94688 4.8 7.5 4.8C7.05312 4.8 6.67057 4.95667 6.35234 5.27C6.03411 5.58333 5.875 5.96 5.875 6.4C5.875 6.84 6.03411 7.21667 6.35234 7.53C6.67057 7.84333 7.05312 8 7.5 8ZM7.5 13.88C9.15208 12.3867 10.3776 11.03 11.1766 9.81C11.9755 8.59 12.375 7.50667 12.375 6.56C12.375 5.10667 11.9044 3.91667 10.9633 2.99C10.0221 2.06333 8.86771 1.6 7.5 1.6C6.13229 1.6 4.97786 2.06333 4.03672 2.99C3.09557 3.91667 2.625 5.10667 2.625 6.56C2.625 7.50667 3.02448 8.59 3.82344 9.81C4.6224 11.03 5.84792 12.3867 7.5 13.88ZM7.5 16C5.31979 14.1733 3.69141 12.4767 2.61484 10.91C1.53828 9.34333 1 7.89333 1 6.56C1 4.56 1.65339 2.96667 2.96016 1.78C4.26693 0.593333 5.78021 0 7.5 0C9.21979 0 10.7331 0.593333 12.0398 1.78C13.3466 2.96667 14 4.56 14 6.56C14 7.89333 13.4617 9.34333 12.3852 10.91C11.3086 12.4767 9.68021 14.1733 7.5 16Z" fill="black"/>
</g>
</svg>
