<svg width="109" height="30" viewBox="0 0 109 30" fill="none" xmlns="http://www.w3.org/2000/svg">
<g clip-path="url(#clip0_33_4)">
<path d="M62.7935 20.7978L59.2438 10.6389H54.3936L60.7775 27.7948H64.7932L71.1717 10.6389H66.3322L62.7935 20.7978Z" fill="black"/>
<path d="M85.7084 21.1811V14.9489H89.8275V10.6397H85.7084V6.86383H81.124V10.6397H78.4248V14.9489H81.124V22.226C81.124 26.3521 83.5514 28.108 86.6349 28.108C87.8977 28.108 88.9225 27.8979 89.8217 27.5155V23.2441C89.8217 23.2441 89.0465 23.5511 88.1093 23.5511C86.8414 23.5511 85.7084 23.0071 85.7084 21.1811Z" fill="black"/>
<path d="M99.3922 10.332C94.4607 10.332 90.4506 14.318 90.4506 19.2197C90.4506 24.1214 94.4607 28.1074 99.3922 28.1074C104.324 28.1074 108.334 24.1214 108.334 19.2197C108.334 14.318 104.324 10.332 99.3922 10.332ZM99.3922 23.5504C96.9914 23.5504 95.0351 21.6059 95.0351 19.2197C95.0351 16.8335 96.9914 14.889 99.3922 14.889C101.793 14.889 103.749 16.8335 103.749 19.2197C103.749 21.6059 101.793 23.5504 99.3922 23.5504Z" fill="black"/>
<path d="M76.8163 10.6383H72.2319V27.7941H76.8163V10.6383Z" fill="black"/>
<path d="M74.5216 2.76367C72.6736 2.76367 71.1727 4.25572 71.1727 6.09251C71.1727 7.92929 72.6736 9.42136 74.5216 9.42136C76.3696 9.42136 77.8712 7.92929 77.8712 6.09251C77.8712 4.25572 76.3696 2.76367 74.5216 2.76367Z" fill="black"/>
<path d="M44.2769 6.09305L35.8553 27.7951H40.8356L42.353 23.6799H50.7095L52.2215 27.7951H57.2018L48.7857 6.09305H44.2769ZM49.1217 19.3706H43.9463L46.5367 12.3575L49.1217 19.3706Z" fill="black"/>
<path d="M21.0118 18.9677C21.0118 13.1877 16.3087 8.50308 10.5059 8.50308C4.70309 8.50308 0 13.1877 0 18.9677C0 24.7477 4.70309 29.4322 10.5059 29.4322C16.3033 29.4322 21.0118 24.7477 21.0118 18.9677Z" fill="#00E066"/>
<path d="M34.421 7.75807C34.421 3.47224 30.935 0 26.6323 0C22.3296 0 18.8436 3.47224 18.8436 7.75807C18.8436 12.0439 22.3349 15.5161 26.6323 15.5161C30.935 15.5161 34.421 12.0439 34.421 7.75807Z" fill="#00AAFF"/>
<path d="M33.3438 22.3911C33.3438 19.2645 30.8028 16.7334 27.6638 16.7334C24.5248 16.7334 21.9837 19.2645 21.9837 22.3911C21.9837 25.5177 24.5248 28.0488 27.6638 28.0488C30.7974 28.0541 33.3438 25.5177 33.3438 22.3911Z" fill="#FF4053"/>
<path d="M14.5529 0.989136C12.6205 0.989136 11.0563 2.54712 11.0563 4.47201C11.0563 6.39689 12.6205 7.95487 14.5529 7.95487C16.4854 7.95487 18.0495 6.39689 18.0495 4.47201C18.0495 2.54712 16.4854 0.989136 14.5529 0.989136Z" fill="#965EEB"/>
</g>
<defs>
<clipPath id="clip0_33_4">
<rect width="109" height="30" fill="white"/>
</clipPath>
</defs>
</svg>
